<svg width="24" height="24" viewBox="0 0 24 24" fill="none" xmlns="http://www.w3.org/2000/svg">
<path d="M23.0494 9.91071C22.4156 8.42843 21.5629 7.15184 20.4915 6.08019C19.4201 5.00874 18.1432 4.15612 16.6609 3.52223C15.1785 2.88835 13.6253 2.57133 12 2.57133C10.3749 2.57133 8.82138 2.88839 7.33928 3.52223C5.85718 4.15635 4.58041 5.00874 3.509 6.08019C2.43736 7.15184 1.58488 8.42843 0.950851 9.91071C0.316966 11.393 0 12.9464 0 14.5715C0 16.9106 0.629429 19.0672 1.88838 21.0404C2.05791 21.2993 2.29902 21.4287 2.61158 21.4287H21.3885C21.7009 21.4287 21.942 21.2993 22.1115 21.0404C23.3706 19.0583 24 16.9019 24 14.5715C24 12.9464 23.6832 11.393 23.0494 9.91071ZM10.7879 4.78799C11.1229 4.4531 11.5268 4.28563 12 4.28563C12.4733 4.28563 12.8772 4.45315 13.212 4.78799C13.5469 5.12268 13.7145 5.52676 13.7145 5.99998C13.7145 6.4732 13.5469 6.87714 13.212 7.21197C12.8772 7.54681 12.4733 7.71433 12 7.71433C11.5268 7.71433 11.1227 7.54681 10.7879 7.21197C10.4532 6.87709 10.2856 6.4732 10.2856 5.99998C10.2856 5.52676 10.453 5.12273 10.7879 4.78799ZM4.64069 15.7835C4.30585 16.1182 3.90177 16.2861 3.42855 16.2861C2.95547 16.2861 2.55139 16.1182 2.21656 15.7835C1.88167 15.449 1.71439 15.0447 1.71439 14.5715C1.71439 14.0983 1.88167 13.6944 2.21656 13.3595C2.55144 13.0246 2.95547 12.8572 3.42855 12.8572C3.90177 12.8572 4.30604 13.0246 4.64069 13.3595C4.97538 13.6944 5.14294 14.0983 5.14294 14.5715C5.14294 15.0447 4.97538 15.4486 4.64069 15.7835ZM7.21221 9.78349C6.87718 10.1183 6.47329 10.2858 6.00002 10.2858C5.52676 10.2858 5.12273 10.1181 4.78784 9.78349C4.45314 9.4488 4.28563 9.04472 4.28563 8.5715C4.28563 8.09828 4.45296 7.69434 4.78784 7.3595C5.12287 7.02462 5.52676 6.85715 6.00002 6.85715C6.47324 6.85715 6.87732 7.02467 7.21221 7.3595C7.5469 7.69439 7.71442 8.09828 7.71442 8.5715C7.71442 9.04458 7.54686 9.44861 7.21221 9.78349ZM14.799 9.89739L13.4462 15.0134C13.893 15.3168 14.2144 15.723 14.4109 16.2321C14.607 16.741 14.634 17.2634 14.4911 17.7991C14.3126 18.4866 13.9152 19.009 13.299 19.366C12.6829 19.7231 12.0312 19.8126 11.3436 19.6339C10.6562 19.4554 10.1337 19.0581 9.77669 18.442C9.41966 17.8257 9.33039 17.1741 9.50893 16.4864C9.65172 15.9509 9.93299 15.5112 10.3527 15.1676C10.7722 14.8237 11.2499 14.6297 11.7856 14.5849L13.1383 9.46883C13.2007 9.23672 13.3347 9.0602 13.5399 8.93964C13.7454 8.81932 13.9595 8.79028 14.1829 8.85272C14.4064 8.9153 14.5781 9.04688 14.6985 9.2477C14.8193 9.4488 14.8526 9.66528 14.799 9.89739ZM16.788 9.78349C16.4531 9.4488 16.2855 9.04472 16.2855 8.5715C16.2855 8.09828 16.4531 7.69434 16.788 7.3595C17.1229 7.02467 17.5268 6.85715 18 6.85715C18.4732 6.85715 18.8771 7.02467 19.212 7.3595C19.5469 7.69434 19.7145 8.09828 19.7145 8.5715C19.7145 9.04458 19.5469 9.44866 19.212 9.78349C18.8771 10.1183 18.4732 10.2858 18 10.2858C17.5268 10.2858 17.1229 10.1183 16.788 9.78349ZM21.7834 15.7835C21.4486 16.1182 21.0447 16.2861 20.5714 16.2861C20.0982 16.2861 19.6943 16.1182 19.3594 15.7835C19.0245 15.449 18.8571 15.0447 18.8571 14.5715C18.8571 14.0983 19.0245 13.6944 19.3594 13.3595C19.6943 13.0246 20.0982 12.8572 20.5714 12.8572C21.0447 12.8572 21.4486 13.0246 21.7834 13.3595C22.1183 13.6944 22.2856 14.0983 22.2856 14.5715C22.2856 15.0447 22.1183 15.4486 21.7834 15.7835Z" fill="white"/>
</svg>
